<svg width="32" height="32" viewBox="0 0 32 32" xmlns="http://www.w3.org/2000/svg">
  <defs>
    <linearGradient id="shieldGradient" x1="0%" y1="0%" x2="100%" y2="100%">
      <stop offset="0%" style="stop-color:#3B82F6;stop-opacity:1" />
      <stop offset="100%" style="stop-color:#1E40AF;stop-opacity:1" />
    </linearGradient>
    <linearGradient id="crossGradient" x1="0%" y1="0%" x2="100%" y2="100%">
      <stop offset="0%" style="stop-color:#10B981;stop-opacity:1" />
      <stop offset="100%" style="stop-color:#059669;stop-opacity:1" />
    </linearGradient>
  </defs>
  
  <!-- Background circle -->
  <circle cx="16" cy="16" r="15" fill="url(#shieldGradient)" stroke="#1E40AF" stroke-width="1"/>
  
  <!-- Shield shape -->
  <path d="M16 5 L22 8 L22 19 C22 24 16 27 16 27 C16 27 10 24 10 19 L10 8 Z" 
        fill="none" stroke="white" stroke-width="1.5" opacity="0.9"/>
  
  <!-- Medical cross -->
  <rect x="13" y="11" width="6" height="2" rx="1" fill="url(#crossGradient)"/>
  <rect x="15" y="9" width="2" height="6" rx="1" fill="url(#crossGradient)"/>
  
  <!-- Blockchain nodes -->
  <circle cx="11" cy="13" r="1" fill="#F59E0B" opacity="0.8"/>
  <circle cx="21" cy="13" r="1" fill="#F59E0B" opacity="0.8"/>
  <circle cx="11" cy="19" r="1" fill="#F59E0B" opacity="0.8"/>
  <circle cx="21" cy="19" r="1" fill="#F59E0B" opacity="0.8"/>
  
  <!-- Connecting lines -->
  <line x1="12" y1="13" x2="20" y2="13" stroke="#F59E0B" stroke-width="0.5" opacity="0.6"/>
  <line x1="12" y1="19" x2="20" y2="19" stroke="#F59E0B" stroke-width="0.5" opacity="0.6"/>
</svg> 